HIERARCHY
ROOT Hips
{
  OFFSET 0.00 100.00 0.00
  CHANNELS 6 Xposition Yposition Zposition Zrotation Xrotation Yrotation
  JOINT Spine
  {
    OFFSET 0.00 10.00 0.00
    CHANNELS 3 Zrotation Xrotation Yrotation
    JOINT Spine1
    {
      OFFSET 0.00 12.00 0.00
      CHANNELS 3 Zrotation Xrotation Yrotation
      JOINT Neck
      {
        OFFSET 0.00 14.00 0.00
        CHANNELS 3 Zrotation Xrotation Yrotation
        JOINT Head
        {
          OFFSET 0.00 8.00 0.00
          CHANNELS 3 Zrotation Xrotation Yrotation
          End Site
          {
            OFFSET 0.00 8.00 0.00
          }
        }
      }
      JOINT LeftShoulder
      {
        OFFSET 4.00 10.00 0.00
        CHANNELS 3 Zrotation Xrotation Yrotation
        JOINT LeftArm
        {
          OFFSET 12.00 0.00 0.00
          CHANNELS 3 Zrotation Xrotation Yrotation
          JOINT LeftForeArm
          {
            OFFSET 25.00 0.00 0.00
            CHANNELS 3 Zrotation Xrotation Yrotation
            JOINT LeftHand
            {
              OFFSET 22.00 0.00 0.00
              CHANNELS 3 Zrotation Xrotation Yrotation
              End Site
              {
                OFFSET 8.00 0.00 0.00
              }
            }
          }
        }
      }
      JOINT RightShoulder
      {
        OFFSET -4.00 10.00 0.00
        CHANNELS 3 Zrotation Xrotation Yrotation
        JOINT RightArm
        {
          OFFSET -12.00 0.00 0.00
          CHANNELS 3 Zrotation Xrotation Yrotation
          JOINT RightForeArm
          {
            OFFSET -25.00 0.00 0.00
            CHANNELS 3 Zrotation Xrotation Yrotation
            JOINT RightHand
            {
              OFFSET -22.00 0.00 0.00
              CHANNELS 3 Zrotation Xrotation Yrotation
              End Site
              {
                OFFSET -8.00 0.00 0.00
              }
            }
          }
        }
      }
    }
  }
  JOINT LeftUpLeg
  {
    OFFSET 8.00 -5.00 0.00
    CHANNELS 3 Zrotation Xrotation Yrotation
    JOINT LeftLeg
    {
      OFFSET 0.00 -40.00 0.00
      CHANNELS 3 Zrotation Xrotation Yrotation
      JOINT LeftFoot
      {
        OFFSET 0.00 -40.00 0.00
        CHANNELS 3 Zrotation Xrotation Yrotation
        End Site
        {
          OFFSET 0.00 -5.00 10.00
        }
      }
    }
  }
  JOINT RightUpLeg
  {
    OFFSET -8.00 -5.00 0.00
    CHANNELS 3 Zrotation Xrotation Yrotation
    JOINT RightLeg
    {
      OFFSET 0.00 -40.00 0.00
      CHANNELS 3 Zrotation Xrotation Yrotation
      JOINT RightFoot
      {
        OFFSET 0.00 -40.00 0.00
        CHANNELS 3 Zrotation Xrotation Yrotation
        End Site
        {
          OFFSET 0.00 -5.00 10.00
        }
      }
    }
  }
}
MOTION
Frames: 24
Frame Time: 0.033333
0.0000 100.0000 0.0000 0.0000 0.0000 0.0000 0.0000 0.0000 0.0000 0.0000 0.0000 0.0000 -0.0000 0.0000 0.0000 -0.0000 0.0000 0.0000 0.0000 0.0000 0.0000 0.0000 -40.0000 0.0000 0.0000 -0.0000 0.0000 0.0000 0.0000 0.0000 -0.0000 0.0000 0.0000 -0.0000 -40.0000 0.0000 0.0000 -0.0000 0.0000 -0.0000 0.0000 0.0000 -0.0000 -0.0000 0.0000 0.0000 0.0000 0.0000 0.0000 -0.0000 0.0000 -0.0000 -0.0000 0.0000 0.0000 0.0000 0.0000 0.0000 -0.0000 0.0000
0.0000 100.0000 0.0000 0.7832 0.0000 1.0442 1.3053 0.0000 0.7832 0.6526 0.0000 0.0000 -0.6526 0.7765 0.0000 -0.5221 1.2941 0.7832 1.0353 0.0000 0.0000 1.9579 -45.2210 0.0000 0.0000 -3.9158 0.0000 3.6235 0.0000 0.0000 -1.0353 0.0000 0.0000 1.9579 -34.7790 0.0000 0.0000 3.9158 0.0000 -3.6235 0.0000 0.0000 -0.5221 -1.0442 0.0000 0.0000 2.0884 0.0000 0.0000 -1.0442 0.0000 -0.5221 -0.0000 0.0000 0.0000 0.0000 0.0000 0.0000 -0.0000 0.0000
0.0000 100.0000 0.0000 1.5529 0.0000 2.0706 2.5882 0.0000 1.5529 1.2941 0.0000 0.0000 -1.2941 1.5000 0.0000 -1.0353 2.5000 1.5529 2.0000 0.0000 0.0000 3.8823 -50.3528 0.0000 0.0000 -7.7646 0.0000 7.0000 0.0000 0.0000 -2.0000 0.0000 0.0000 3.8823 -29.6472 0.0000 0.0000 7.7646 0.0000 -7.0000 0.0000 0.0000 -1.0353 -2.0706 0.0000 0.0000 4.1411 0.0000 0.0000 -2.0706 0.0000 -1.0353 -0.0000 0.0000 0.0000 0.0000 0.0000 0.0000 -0.0000 0.0000
0.0000 100.0000 0.0000 2.2961 0.0000 3.0615 3.8268 0.0000 2.2961 1.9134 0.0000 0.0000 -1.9134 2.1213 0.0000 -1.5307 3.5355 2.2961 2.8284 0.0000 0.0000 5.7403 -55.3073 0.0000 0.0000 -11.4805 0.0000 9.8995 0.0000 0.0000 -2.8284 0.0000 0.0000 5.7403 -24.6927 0.0000 0.0000 11.4805 0.0000 -9.8995 0.0000 0.0000 -1.5307 -3.0615 0.0000 0.0000 6.1229 0.0000 0.0000 -3.0615 0.0000 -1.5307 -0.0000 0.0000 0.0000 0.0000 0.0000 0.0000 -0.0000 0.0000
0.0000 100.0000 0.0000 3.0000 0.0000 4.0000 5.0000 0.0000 3.0000 2.5000 0.0000 0.0000 -2.5000 2.5981 0.0000 -2.0000 4.3301 3.0000 3.4641 0.0000 0.0000 7.5000 -60.0000 0.0000 0.0000 -15.0000 0.0000 12.1244 0.0000 0.0000 -3.4641 0.0000 0.0000 7.5000 -20.0000 0.0000 0.0000 15.0000 0.0000 -12.1244 0.0000 0.0000 -2.0000 -4.0000 0.0000 0.0000 8.0000 0.0000 0.0000 -4.0000 0.0000 -2.0000 -0.0000 0.0000 0.0000 0.0000 0.0000 0.0000 -0.0000 0.0000
0.0000 100.0000 0.0000 3.6526 0.0000 4.8701 6.0876 0.0000 3.6526 3.0438 0.0000 0.0000 -3.0438 2.8978 0.0000 -2.4350 4.8296 3.6526 3.8637 0.0000 0.0000 9.1314 -64.3505 0.0000 0.0000 -18.2628 0.0000 13.5230 0.0000 0.0000 -3.8637 0.0000 0.0000 9.1314 -15.6495 0.0000 0.0000 18.2628 0.0000 -13.5230 0.0000 0.0000 -2.4350 -4.8701 0.0000 0.0000 9.7402 0.0000 0.0000 -4.8701 0.0000 -2.4350 -0.0000 0.0000 0.0000 0.0000 0.0000 0.0000 -0.0000 0.0000
0.0000 100.0000 0.0000 4.2426 0.0000 5.6569 7.0711 0.0000 4.2426 3.5355 0.0000 0.0000 -3.5355 3.0000 0.0000 -2.8284 5.0000 4.2426 4.0000 0.0000 0.0000 10.6066 -68.2843 0.0000 0.0000 -21.2132 0.0000 14.0000 0.0000 0.0000 -4.0000 0.0000 0.0000 10.6066 -11.7157 0.0000 0.0000 21.2132 0.0000 -14.0000 0.0000 0.0000 -2.8284 -5.6569 0.0000 0.0000 11.3137 0.0000 0.0000 -5.6569 0.0000 -2.8284 -0.0000 0.0000 0.0000 0.0000 0.0000 0.0000 -0.0000 0.0000
0.0000 100.0000 0.0000 4.7601 0.0000 6.3468 7.9335 0.0000 4.7601 3.9668 0.0000 0.0000 -3.9668 2.8978 0.0000 -3.1734 4.8296 4.7601 3.8637 0.0000 0.0000 11.9003 -71.7341 0.0000 0.0000 -23.8006 0.0000 13.5230 0.0000 0.0000 -3.8637 0.0000 0.0000 11.9003 -8.2659 0.0000 0.0000 23.8006 0.0000 -13.5230 0.0000 0.0000 -3.1734 -6.3468 0.0000 0.0000 12.6937 0.0000 0.0000 -6.3468 0.0000 -3.1734 -0.0000 0.0000 0.0000 0.0000 0.0000 0.0000 -0.0000 0.0000
0.0000 100.0000 0.0000 5.1962 0.0000 6.9282 8.6603 0.0000 5.1962 4.3301 0.0000 0.0000 -4.3301 2.5981 0.0000 -3.4641 4.3301 5.1962 3.4641 0.0000 0.0000 12.9904 -74.6410 0.0000 0.0000 -25.9808 0.0000 12.1244 0.0000 0.0000 -3.4641 0.0000 0.0000 12.9904 -5.3590 0.0000 0.0000 25.9808 0.0000 -12.1244 0.0000 0.0000 -3.4641 -6.9282 0.0000 0.0000 13.8564 0.0000 0.0000 -6.9282 0.0000 -3.4641 -0.0000 0.0000 0.0000 0.0000 0.0000 0.0000 -0.0000 0.0000
0.0000 100.0000 0.0000 5.5433 0.0000 7.3910 9.2388 0.0000 5.5433 4.6194 0.0000 0.0000 -4.6194 2.1213 0.0000 -3.6955 3.5355 5.5433 2.8284 0.0000 0.0000 13.8582 -76.9552 0.0000 0.0000 -27.7164 0.0000 9.8995 0.0000 0.0000 -2.8284 0.0000 0.0000 13.8582 -3.0448 0.0000 0.0000 27.7164 0.0000 -9.8995 0.0000 0.0000 -3.6955 -7.3910 0.0000 0.0000 14.7821 0.0000 0.0000 -7.3910 0.0000 -3.6955 -0.0000 0.0000 0.0000 0.0000 0.0000 0.0000 -0.0000 0.0000
0.0000 100.0000 0.0000 5.7956 0.0000 7.7274 9.6593 0.0000 5.7956 4.8296 0.0000 0.0000 -4.8296 1.5000 0.0000 -3.8637 2.5000 5.7956 2.0000 0.0000 0.0000 14.4889 -78.6370 0.0000 0.0000 -28.9778 0.0000 7.0000 0.0000 0.0000 -2.0000 0.0000 0.0000 14.4889 -1.3630 0.0000 0.0000 28.9778 0.0000 -7.0000 0.0000 0.0000 -3.8637 -7.7274 0.0000 0.0000 15.4548 0.0000 0.0000 -7.7274 0.0000 -3.8637 -0.0000 0.0000 0.0000 0.0000 0.0000 0.0000 -0.0000 0.0000
0.0000 100.0000 0.0000 5.9487 0.0000 7.9316 9.9144 0.0000 5.9487 4.9572 0.0000 0.0000 -4.9572 0.7765 0.0000 -3.9658 1.2941 5.9487 1.0353 0.0000 0.0000 14.8717 -79.6578 0.0000 0.0000 -29.7433 0.0000 3.6235 0.0000 0.0000 -1.0353 0.0000 0.0000 14.8717 -0.3422 0.0000 0.0000 29.7433 0.0000 -3.6235 0.0000 0.0000 -3.9658 -7.9316 0.0000 0.0000 15.8631 0.0000 0.0000 -7.9316 0.0000 -3.9658 -0.0000 0.0000 0.0000 0.0000 0.0000 0.0000 -0.0000 0.0000
0.0000 100.0000 0.0000 6.0000 0.0000 8.0000 10.0000 0.0000 6.0000 5.0000 0.0000 0.0000 -5.0000 0.0000 0.0000 -4.0000 0.0000 6.0000 0.0000 0.0000 0.0000 15.0000 -80.0000 0.0000 0.0000 -30.0000 0.0000 0.0000 0.0000 0.0000 -0.0000 0.0000 0.0000 15.0000 -0.0000 0.0000 0.0000 30.0000 0.0000 -0.0000 0.0000 0.0000 -4.0000 -8.0000 0.0000 0.0000 16.0000 0.0000 0.0000 -8.0000 0.0000 -4.0000 -0.0000 0.0000 0.0000 0.0000 0.0000 0.0000 -0.0000 0.0000
0.0000 100.0000 0.0000 5.9487 0.0000 7.9316 9.9144 0.0000 5.9487 4.9572 0.0000 0.0000 -4.9572 -0.7765 0.0000 -3.9658 -1.2941 5.9487 -1.0353 0.0000 0.0000 14.8717 -79.6578 0.0000 0.0000 -29.7433 0.0000 -3.6235 0.0000 0.0000 1.0353 0.0000 0.0000 14.8717 -0.3422 0.0000 0.0000 29.7433 0.0000 3.6235 0.0000 0.0000 -3.9658 -7.9316 0.0000 0.0000 15.8631 0.0000 0.0000 -7.9316 0.0000 -3.9658 -0.0000 0.0000 0.0000 0.0000 0.0000 0.0000 -0.0000 0.0000
0.0000 100.0000 0.0000 5.7956 0.0000 7.7274 9.6593 0.0000 5.7956 4.8296 0.0000 0.0000 -4.8296 -1.5000 0.0000 -3.8637 -2.5000 5.7956 -2.0000 0.0000 0.0000 14.4889 -78.6370 0.0000 0.0000 -28.9778 0.0000 -7.0000 0.0000 0.0000 2.0000 0.0000 0.0000 14.4889 -1.3630 0.0000 0.0000 28.9778 0.0000 7.0000 0.0000 0.0000 -3.8637 -7.7274 0.0000 0.0000 15.4548 0.0000 0.0000 -7.7274 0.0000 -3.8637 -0.0000 0.0000 0.0000 0.0000 0.0000 0.0000 -0.0000 0.0000
0.0000 100.0000 0.0000 5.5433 0.0000 7.3910 9.2388 0.0000 5.5433 4.6194 0.0000 0.0000 -4.6194 -2.1213 0.0000 -3.6955 -3.5355 5.5433 -2.8284 0.0000 0.0000 13.8582 -76.9552 0.0000 0.0000 -27.7164 0.0000 -9.8995 0.0000 0.0000 2.8284 0.0000 0.0000 13.8582 -3.0448 0.0000 0.0000 27.7164 0.0000 9.8995 0.0000 0.0000 -3.6955 -7.3910 0.0000 0.0000 14.7821 0.0000 0.0000 -7.3910 0.0000 -3.6955 -0.0000 0.0000 0.0000 0.0000 0.0000 0.0000 -0.0000 0.0000
0.0000 100.0000 0.0000 5.1962 0.0000 6.9282 8.6603 0.0000 5.1962 4.3301 0.0000 0.0000 -4.3301 -2.5981 0.0000 -3.4641 -4.3301 5.1962 -3.4641 0.0000 0.0000 12.9904 -74.6410 0.0000 0.0000 -25.9808 0.0000 -12.1244 0.0000 0.0000 3.4641 0.0000 0.0000 12.9904 -5.3590 0.0000 0.0000 25.9808 0.0000 12.1244 0.0000 0.0000 -3.4641 -6.9282 0.0000 0.0000 13.8564 0.0000 0.0000 -6.9282 0.0000 -3.4641 -0.0000 0.0000 0.0000 0.0000 0.0000 0.0000 -0.0000 0.0000
0.0000 100.0000 0.0000 4.7601 0.0000 6.3468 7.9335 0.0000 4.7601 3.9668 0.0000 0.0000 -3.9668 -2.8978 0.0000 -3.1734 -4.8296 4.7601 -3.8637 0.0000 0.0000 11.9003 -71.7341 0.0000 0.0000 -23.8006 0.0000 -13.5230 0.0000 0.0000 3.8637 0.0000 0.0000 11.9003 -8.2659 0.0000 0.0000 23.8006 0.0000 13.5230 0.0000 0.0000 -3.1734 -6.3468 0.0000 0.0000 12.6937 0.0000 0.0000 -6.3468 0.0000 -3.1734 -0.0000 0.0000 0.0000 0.0000 0.0000 0.0000 -0.0000 0.0000
0.0000 100.0000 0.0000 4.2426 0.0000 5.6569 7.0711 0.0000 4.2426 3.5355 0.0000 0.0000 -3.5355 -3.0000 0.0000 -2.8284 -5.0000 4.2426 -4.0000 0.0000 0.0000 10.6066 -68.2843 0.0000 0.0000 -21.2132 0.0000 -14.0000 0.0000 0.0000 4.0000 0.0000 0.0000 10.6066 -11.7157 0.0000 0.0000 21.2132 0.0000 14.0000 0.0000 0.0000 -2.8284 -5.6569 0.0000 0.0000 11.3137 0.0000 0.0000 -5.6569 0.0000 -2.8284 -0.0000 0.0000 0.0000 0.0000 0.0000 0.0000 -0.0000 0.0000
0.0000 100.0000 0.0000 3.6526 0.0000 4.8701 6.0876 0.0000 3.6526 3.0438 0.0000 0.0000 -3.0438 -2.8978 0.0000 -2.4350 -4.8296 3.6526 -3.8637 0.0000 0.0000 9.1314 -64.3505 0.0000 0.0000 -18.2628 0.0000 -13.5230 0.0000 0.0000 3.8637 0.0000 0.0000 9.1314 -15.6495 0.0000 0.0000 18.2628 0.0000 13.5230 0.0000 0.0000 -2.4350 -4.8701 0.0000 0.0000 9.7402 0.0000 0.0000 -4.8701 0.0000 -2.4350 -0.0000 0.0000 0.0000 0.0000 0.0000 0.0000 -0.0000 0.0000
0.0000 100.0000 0.0000 3.0000 0.0000 4.0000 5.0000 0.0000 3.0000 2.5000 0.0000 0.0000 -2.5000 -2.5981 0.0000 -2.0000 -4.3301 3.0000 -3.4641 0.0000 0.0000 7.5000 -60.0000 0.0000 0.0000 -15.0000 0.0000 -12.1244 0.0000 0.0000 3.4641 0.0000 0.0000 7.5000 -20.0000 0.0000 0.0000 15.0000 0.0000 12.1244 0.0000 0.0000 -2.0000 -4.0000 0.0000 0.0000 8.0000 0.0000 0.0000 -4.0000 0.0000 -2.0000 -0.0000 0.0000 0.0000 0.0000 0.0000 0.0000 -0.0000 0.0000
0.0000 100.0000 0.0000 2.2961 0.0000 3.0615 3.8268 0.0000 2.2961 1.9134 0.0000 0.0000 -1.9134 -2.1213 0.0000 -1.5307 -3.5355 2.2961 -2.8284 0.0000 0.0000 5.7403 -55.3073 0.0000 0.0000 -11.4805 0.0000 -9.8995 0.0000 0.0000 2.8284 0.0000 0.0000 5.7403 -24.6927 0.0000 0.0000 11.4805 0.0000 9.8995 0.0000 0.0000 -1.5307 -3.0615 0.0000 0.0000 6.1229 0.0000 0.0000 -3.0615 0.0000 -1.5307 -0.0000 0.0000 0.0000 0.0000 0.0000 0.0000 -0.0000 0.0000
0.0000 100.0000 0.0000 1.5529 0.0000 2.0706 2.5882 0.0000 1.5529 1.2941 0.0000 0.0000 -1.2941 -1.5000 0.0000 -1.0353 -2.5000 1.5529 -2.0000 0.0000 0.0000 3.8823 -50.3528 0.0000 0.0000 -7.7646 0.0000 -7.0000 0.0000 0.0000 2.0000 0.0000 0.0000 3.8823 -29.6472 0.0000 0.0000 7.7646 0.0000 7.0000 0.0000 0.0000 -1.0353 -2.0706 0.0000 0.0000 4.1411 0.0000 0.0000 -2.0706 0.0000 -1.0353 -0.0000 0.0000 0.0000 0.0000 0.0000 0.0000 -0.0000 0.0000
0.0000 100.0000 0.0000 0.7832 0.0000 1.0442 1.3053 0.0000 0.7832 0.6526 0.0000 0.0000 -0.6526 -0.7765 0.0000 -0.5221 -1.2941 0.7832 -1.0353 0.0000 0.0000 1.9579 -45.2210 0.0000 0.0000 -3.9158 0.0000 -3.6235 0.0000 0.0000 1.0353 0.0000 0.0000 1.9579 -34.7790 0.0000 0.0000 3.9158 0.0000 3.6235 0.0000 0.0000 -0.5221 -1.0442 0.0000 0.0000 2.0884 0.0000 0.0000 -1.0442 0.0000 -0.5221 -0.0000 0.0000 0.0000 0.0000 0.0000 0.0000 -0.0000 0.0000
